<svg xmlns="http://www.w3.org/2000/svg" width="375" viewBox="0 0 375 375" height="375" version="1.0"><defs><clipPath id="a"><path d="M 36 77.386719 L 298 77.386719 L 298 281 L 36 281 Z M 36 77.386719"/></clipPath><clipPath id="b"><path d="M 95 110 L 302 110 L 302 297.886719 L 95 297.886719 Z M 95 110"/></clipPath></defs><g clip-path="url(#a)"><path fill="#9573F0" d="M 173.730469 110.296875 C 175.5625 109.660156 177.472656 109.738281 179.382812 109.660156 C 182.007812 109.5 184.554688 109.660156 187.183594 109.820312 C 191.242188 110.136719 195.300781 110.695312 199.277344 111.492188 C 202.066406 112.050781 204.851562 112.769531 207.554688 113.804688 C 207.476562 114.601562 206.839844 115 206.363281 115.476562 C 203.417969 118.425781 200.472656 121.375 197.527344 124.324219 C 194.183594 127.671875 190.207031 130.140625 185.75 131.65625 C 182.328125 132.769531 178.824219 133.40625 175.324219 134.203125 C 170.230469 135.398438 165.933594 137.632812 162.667969 141.855469 C 160.203125 144.960938 157.496094 147.832031 154.230469 150.144531 C 150.570312 152.773438 147.230469 155.878906 143.328125 158.351562 C 142.691406 158.75 142.292969 159.386719 142.613281 160.183594 C 143.011719 161.058594 143.726562 160.742188 144.441406 160.503906 C 149.140625 159.148438 153.515625 156.917969 157.414062 154.046875 C 159.167969 152.773438 160.996094 151.578125 162.75 150.300781 C 166.328125 147.75 170.390625 146.476562 174.765625 146.554688 C 178.746094 146.636719 182.167969 145.441406 185.429688 143.367188 C 190.046875 140.5 194.742188 138.03125 200.15625 137.074219 C 201.585938 136.835938 203.019531 136.117188 204.609375 136.675781 C 204.691406 137.390625 204.292969 137.710938 204.054688 138.1875 C 201.90625 141.773438 198.882812 144.324219 195.140625 146.15625 C 191.796875 147.832031 188.453125 149.425781 185.191406 151.179688 C 181.453125 153.171875 177.949219 155.480469 175.164062 158.75 C 172.058594 162.335938 169.117188 166.082031 165.214844 168.789062 C 164.578125 169.1875 163.941406 169.90625 164.339844 170.703125 C 164.816406 171.660156 165.773438 171.261719 166.570312 170.941406 C 169.035156 170.066406 171.34375 168.710938 173.414062 167.117188 C 177.472656 163.929688 181.929688 161.539062 186.941406 159.945312 C 190.207031 158.910156 193.628906 158.191406 196.8125 156.996094 C 199.199219 156.121094 201.429688 155.082031 203.417969 153.570312 C 206.125 151.578125 208.429688 149.1875 210.261719 146.398438 C 212.570312 142.8125 215.832031 140.820312 219.890625 139.941406 C 222.597656 139.382812 225.382812 138.90625 228.167969 138.429688 C 232.707031 137.632812 237.164062 136.675781 241.300781 134.445312 C 241.9375 134.125 242.496094 133.726562 243.289062 133.726562 C 248.464844 138.507812 253.082031 143.765625 256.421875 149.902344 C 251.328125 151.257812 246.394531 152.933594 241.539062 154.925781 C 235.96875 157.234375 231.195312 160.503906 227.691406 165.441406 C 224.347656 170.066406 220.289062 173.808594 215.277344 176.28125 C 211.457031 178.191406 207.554688 180.027344 203.578125 181.539062 C 202.621094 181.859375 201.667969 182.257812 200.710938 182.65625 C 200.15625 182.894531 199.757812 183.371094 199.914062 184.011719 C 200.074219 184.648438 200.550781 184.726562 201.03125 184.886719 C 201.269531 184.964844 201.585938 184.964844 201.824219 184.886719 C 203.335938 184.488281 204.851562 184.648438 206.363281 184.328125 C 211.21875 183.453125 215.59375 181.222656 219.8125 178.910156 C 224.269531 176.441406 228.886719 174.527344 233.820312 173.410156 C 234.855469 173.171875 235.96875 172.613281 237.320312 173.171875 C 236.367188 173.652344 235.652344 174.050781 234.855469 174.449219 C 231.671875 176.28125 228.566406 178.273438 226.179688 181.0625 C 224.507812 183.054688 222.917969 185.125 221.324219 187.199219 C 220.847656 187.597656 220.289062 187.757812 219.8125 187.914062 C 212.570312 190.464844 205.246094 192.617188 197.765625 194.449219 C 189.089844 196.601562 180.574219 198.992188 172.296875 202.257812 C 165.773438 204.808594 159.167969 206.882812 152.480469 208.875 C 145.320312 210.945312 138.074219 212.9375 130.992188 215.40625 C 127.332031 216.683594 123.671875 218.039062 119.851562 219.074219 C 121.203125 217.480469 122.714844 216.046875 124.070312 214.453125 C 126.933594 210.945312 130.832031 208.632812 134.734375 206.402344 C 136.484375 205.367188 138.234375 204.171875 140.144531 203.613281 C 141.578125 203.136719 142.851562 202.5 144.125 201.78125 C 148.105469 199.550781 152.082031 197.238281 156.382812 195.484375 C 160.679688 193.8125 164.976562 192.21875 168.957031 189.90625 C 172.378906 187.914062 175.324219 185.445312 177.789062 182.335938 C 178.109375 181.859375 178.585938 181.539062 179.0625 181.140625 C 180.816406 179.785156 182.882812 179.148438 185.03125 178.671875 C 186.386719 178.351562 186.863281 177.875 186.703125 177.238281 C 186.546875 176.519531 185.828125 176.359375 184.554688 176.679688 C 181.132812 177.554688 177.871094 178.75 174.6875 180.265625 C 172.140625 181.539062 169.832031 183.054688 167.445312 184.566406 C 165.691406 185.683594 163.863281 186.800781 161.792969 186.800781 C 159.484375 186.878906 157.175781 187.199219 154.949219 187.277344 C 153.039062 187.359375 151.128906 187.757812 149.378906 188.394531 C 144.761719 189.988281 140.382812 192.058594 136.484375 195.007812 C 134.972656 196.203125 133.140625 196.601562 131.3125 196.921875 C 128.128906 197.476562 124.863281 197.796875 121.679688 198.433594 C 120.886719 198.59375 120.007812 199.152344 118.894531 198.671875 C 120.644531 197.320312 122.398438 196.28125 124.226562 195.40625 C 128.128906 193.492188 132.105469 191.660156 136.007812 189.667969 C 137.996094 188.710938 139.746094 187.4375 141.257812 185.84375 C 143.011719 184.011719 144.363281 181.9375 145.636719 179.785156 C 147.148438 177.394531 148.820312 175.164062 151.128906 173.492188 C 152.402344 172.613281 153.59375 171.738281 155.109375 171.179688 C 156.0625 170.863281 156.382812 170.066406 156.0625 169.425781 C 155.585938 168.550781 154.867188 168.789062 154.230469 169.1875 C 152.800781 170.066406 151.289062 170.78125 149.777344 171.417969 C 148.742188 171.898438 147.625 172.296875 146.59375 172.855469 C 143.089844 174.765625 139.90625 177.078125 136.722656 179.546875 C 132.585938 182.816406 128.046875 185.445312 122.875 186.878906 C 114.359375 189.269531 106.082031 192.296875 98.125 196.203125 C 97.089844 196.679688 96.292969 196.839844 95.257812 196.601562 C 95.097656 191.183594 96.054688 185.921875 97.246094 180.664062 C 98.679688 174.449219 100.828125 168.390625 103.613281 162.652344 C 104.011719 161.777344 104.648438 160.902344 105.125 160.023438 C 105.367188 160.023438 105.523438 159.863281 105.605469 159.625 C 106.082031 159.707031 106.480469 159.386719 106.796875 159.148438 C 109.824219 156.277344 113.402344 154.128906 117.144531 152.214844 C 122.398438 149.664062 127.570312 146.953125 132.742188 144.40625 C 136.246094 142.652344 139.269531 140.339844 141.417969 137.074219 C 143.886719 133.25 147.46875 130.859375 151.527344 129.105469 C 153.835938 128.148438 156.222656 127.351562 158.53125 126.554688 C 162.113281 125.28125 165.933594 124.484375 169.59375 123.527344 C 170.308594 123.367188 171.105469 123.128906 171.742188 122.808594 C 172.777344 122.332031 172.777344 121.695312 172.058594 120.816406 C 171.34375 120.019531 170.46875 119.703125 169.511719 119.703125 C 165.453125 119.542969 161.394531 119.621094 157.414062 120.898438 C 152.71875 122.410156 148.261719 124.484375 143.886719 126.714844 C 141.738281 127.828125 139.828125 129.105469 138.15625 130.859375 C 135.449219 133.648438 132.347656 135.878906 128.765625 137.390625 C 128.367188 137.550781 128.046875 137.949219 127.492188 137.472656 C 129.320312 135.398438 131.390625 133.566406 133.539062 131.894531 C 138.15625 128.226562 142.851562 124.5625 148.105469 121.613281 C 153.4375 118.746094 158.929688 116.433594 164.660156 114.601562 C 167.207031 113.804688 169.75 113.007812 172.21875 111.890625 C 172.777344 111.652344 173.730469 111.414062 173.730469 110.296875 Z M 120.488281 182.65625 C 120.726562 181.222656 120.566406 179.945312 120.40625 178.671875 C 119.929688 174.605469 120.25 170.78125 123.910156 168.152344 C 124.148438 167.992188 124.464844 167.753906 124.308594 167.355469 C 124.226562 166.957031 123.828125 166.957031 123.511719 166.957031 C 120.328125 166.71875 118.257812 164.886719 116.828125 162.175781 C 116.667969 161.855469 116.507812 161.617188 116.347656 161.300781 C 116.191406 160.980469 116.03125 160.660156 115.632812 160.742188 C 115.15625 160.820312 115.15625 161.300781 115.15625 161.617188 C 115.15625 162.015625 115.15625 162.414062 115.15625 162.734375 C 115.394531 165.203125 114.4375 167.277344 112.847656 169.027344 C 112.289062 169.667969 111.734375 170.304688 111.253906 170.941406 C 110.9375 171.339844 110.378906 171.660156 110.699219 172.214844 C 111.015625 172.773438 111.652344 172.457031 112.128906 172.535156 C 112.371094 172.535156 112.609375 172.613281 112.925781 172.535156 C 114.757812 172.375 115.949219 173.171875 116.90625 174.6875 C 118.101562 176.519531 118.738281 178.671875 119.375 180.664062 C 119.613281 181.460938 119.53125 182.175781 120.488281 182.65625 Z M 121.679688 250.789062 C 125.820312 249.914062 129.878906 249.992188 134.097656 250.472656 C 138.074219 250.949219 141.976562 251.90625 145.957031 252.464844 C 146.832031 252.621094 147.707031 252.621094 148.660156 252.382812 C 149.058594 252.304688 149.535156 252.144531 150.015625 252.144531 C 153.355469 252.304688 156.621094 251.347656 159.882812 250.789062 C 162.429688 250.3125 164.898438 249.992188 167.445312 249.753906 C 170.707031 249.433594 174.050781 249.035156 177.3125 248.71875 C 178.1875 248.636719 179.0625 248.636719 180.019531 248.636719 C 180.496094 248.636719 180.972656 248.796875 181.054688 249.355469 C 181.132812 249.914062 180.734375 250.230469 180.335938 250.390625 C 179.78125 250.628906 179.144531 250.789062 178.507812 250.871094 C 174.6875 251.667969 171.742188 253.738281 169.671875 257.085938 C 169.433594 257.5625 169.117188 257.960938 168.796875 258.359375 C 167.761719 259.714844 166.648438 260.910156 164.816406 261.070312 C 162.667969 261.230469 160.597656 261.628906 158.371094 261.46875 C 153.753906 261.230469 149.378906 262.027344 146.273438 266.25 C 144.761719 268.320312 142.851562 270.3125 140.226562 271.03125 C 140.621094 271.507812 141.179688 271.828125 141.816406 272.148438 C 144.921875 273.660156 148.105469 275.09375 151.367188 276.210938 C 152.957031 276.769531 154.472656 277.484375 156.140625 277.566406 C 159.644531 275.972656 163.304688 274.9375 167.207031 274.777344 C 175.324219 274.378906 182.804688 276.769531 190.207031 279.71875 C 190.445312 279.796875 190.605469 280.035156 190.84375 280.195312 C 191.320312 280.195312 191.878906 280.195312 192.355469 280.117188 C 196.175781 279.398438 199.914062 278.679688 203.578125 277.40625 C 203.417969 276.050781 204.054688 275.175781 205.167969 274.378906 C 207.792969 272.386719 210.582031 270.792969 213.523438 269.277344 C 217.503906 267.285156 221.484375 265.214844 225.066406 262.503906 C 228.726562 259.714844 231.988281 256.449219 234.695312 252.703125 C 234.855469 252.464844 235.015625 252.304688 234.933594 251.984375 C 234.457031 251.507812 234.136719 251.984375 233.742188 252.144531 C 231.195312 253.417969 228.566406 254.695312 226.019531 256.050781 C 221.800781 258.28125 217.34375 259.238281 212.648438 259.792969 C 205.488281 260.671875 198.640625 262.34375 192.195312 265.613281 C 191.636719 265.929688 191.082031 266.328125 190.445312 266.328125 C 190.046875 266.328125 189.648438 266.171875 189.488281 265.773438 C 189.332031 265.453125 189.570312 265.132812 189.726562 264.894531 C 190.605469 263.9375 191.796875 263.300781 192.832031 262.664062 C 196.175781 260.511719 199.597656 258.519531 203.179688 256.847656 C 206.601562 255.253906 210.101562 253.898438 213.605469 252.464844 C 219.414062 250.230469 224.746094 247.285156 228.886719 242.582031 C 230.558594 240.75 232.625 239.316406 234.378906 237.480469 C 234.617188 237.164062 235.015625 237.003906 235.410156 237.003906 C 234.296875 235.171875 232.785156 234.054688 230.558594 234.214844 C 230.238281 234.214844 229.921875 234.136719 229.601562 234.054688 C 228.886719 233.816406 228.804688 233.496094 229.363281 232.941406 C 229.921875 232.460938 230.558594 231.984375 231.195312 231.585938 C 233.34375 230.308594 234.058594 228.316406 234.21875 226.007812 C 234.296875 224.574219 234.21875 223.058594 234.617188 221.625 C 234.296875 221.226562 233.980469 221.382812 233.582031 221.542969 C 229.679688 223.375 225.941406 225.371094 222.4375 227.917969 C 220.6875 229.195312 219.097656 230.707031 217.585938 232.300781 C 213.84375 236.046875 209.625 239.15625 204.929688 241.464844 C 201.109375 243.378906 196.972656 244.253906 192.832031 245.050781 C 191.796875 245.292969 190.683594 245.609375 189.648438 245.449219 C 189.011719 245.371094 188.296875 245.292969 188.136719 244.574219 C 187.898438 243.777344 188.453125 243.21875 189.089844 242.902344 C 190.363281 242.261719 191.636719 241.785156 192.992188 241.226562 C 195.699219 240.191406 197.925781 238.519531 199.675781 236.285156 C 201.347656 234.136719 203.179688 232.222656 205.488281 230.789062 C 205.644531 230.707031 205.804688 230.550781 205.804688 230.308594 C 205.566406 229.910156 205.089844 230.070312 204.769531 230.152344 C 201.347656 230.707031 197.765625 230.867188 194.425781 231.902344 C 190.285156 233.179688 186.304688 235.011719 182.484375 237.082031 C 179.300781 238.835938 176.117188 240.667969 172.539062 241.464844 C 169.671875 242.105469 166.808594 242.105469 163.78125 241.863281 C 160.441406 241.625 157.414062 240.667969 154.230469 239.871094 C 153.675781 239.714844 152.878906 239.792969 152.878906 239.074219 C 152.800781 238.199219 153.515625 237.960938 154.230469 237.800781 C 155.425781 237.5625 156.621094 237.242188 157.8125 237.082031 C 161.15625 236.605469 164.5 236.128906 167.84375 235.570312 C 172.058594 234.851562 175.722656 233.019531 179.300781 230.949219 C 184.714844 227.839844 189.570312 224.015625 194.664062 220.507812 C 198.960938 217.640625 203.65625 215.566406 208.75 214.691406 C 212.011719 214.132812 215.277344 214.132812 218.539062 214.210938 C 219.175781 214.210938 219.652344 214.53125 220.210938 214.691406 C 222.28125 215.40625 224.269531 216.203125 226.496094 216.203125 C 228.089844 216.203125 229.523438 215.804688 230.875 215.167969 C 233.980469 213.65625 236.921875 211.742188 240.347656 210.945312 C 245.835938 209.511719 251.328125 209.351562 256.582031 212.0625 C 256.898438 212.21875 257.296875 212.378906 257.617188 212.617188 C 258.492188 213.335938 258.171875 214.609375 256.980469 215.007812 C 255.867188 215.40625 254.671875 215.648438 253.476562 215.804688 C 247.90625 216.761719 242.574219 218.277344 237.242188 220.109375 C 236.445312 220.347656 235.492188 220.507812 235.09375 221.464844 C 235.808594 222.179688 235.96875 223.136719 236.285156 224.015625 C 236.921875 225.609375 237.800781 226.964844 239.152344 228 C 240.105469 228.796875 241.140625 229.355469 242.414062 229.511719 C 242.894531 229.59375 243.449219 229.511719 243.847656 230.070312 C 243.53125 231.265625 241.777344 231.105469 241.621094 232.382812 C 242.894531 232.300781 243.847656 231.503906 244.882812 230.949219 C 249.5 228.476562 254.351562 227.121094 259.527344 226.324219 C 259.84375 226.007812 260.003906 225.609375 260.164062 225.128906 C 261.753906 221.464844 263.1875 217.71875 264.222656 213.972656 C 266.292969 206.722656 267.566406 199.390625 267.40625 191.820312 C 263.746094 193.09375 260.003906 194.289062 256.34375 195.566406 C 241.699219 200.664062 226.976562 205.765625 212.25 210.707031 C 198.484375 215.328125 184.792969 220.03125 171.023438 224.652344 C 157.65625 229.113281 144.285156 233.339844 130.832031 237.480469 C 124.148438 239.472656 117.460938 241.546875 110.855469 243.539062 C 110.460938 243.699219 110.0625 243.855469 109.582031 244.015625 C 111.574219 247.042969 113.722656 249.992188 116.269531 252.542969 C 118.019531 252.382812 119.691406 251.1875 121.679688 250.789062 Z M 280.457031 77.863281 C 280.855469 80.015625 280.457031 82.246094 280.300781 84.398438 C 279.820312 89.660156 277.832031 94.042969 273.375 97.148438 C 272.261719 97.945312 271.144531 98.664062 270.03125 99.460938 C 269.792969 99.621094 269.476562 99.859375 269.554688 100.257812 C 269.632812 100.65625 269.953125 100.734375 270.269531 100.734375 C 273.054688 100.574219 275.285156 102.011719 277.433594 103.523438 C 280.378906 105.597656 282.449219 108.226562 283.5625 111.652344 C 284.039062 113.085938 284.4375 114.441406 284.914062 115.875 C 285.074219 116.273438 285.074219 116.914062 285.632812 116.832031 C 286.269531 116.753906 286.1875 116.117188 286.269531 115.636719 C 286.269531 115.558594 286.269531 115.476562 286.269531 115.476562 C 286.90625 110.777344 288.019531 106.152344 290.246094 101.929688 C 291.679688 99.300781 293.429688 96.988281 296.136719 95.476562 C 296.375 95.316406 296.613281 95.238281 296.773438 95.078125 C 297.171875 94.679688 297.171875 94.28125 296.613281 94.042969 C 296.214844 93.882812 295.738281 93.722656 295.339844 93.644531 C 293.03125 93.003906 290.964844 91.890625 288.894531 90.695312 C 286.425781 89.261719 284.597656 87.269531 283.402344 84.71875 C 282.449219 82.644531 281.332031 80.574219 281.253906 78.183594 C 281.253906 77.863281 281.175781 77.546875 280.695312 77.546875 C 280.457031 77.386719 280.378906 77.625 280.457031 77.863281 Z M 43.765625 183.214844 C 43.84375 185.761719 43.128906 188.15625 42.09375 190.464844 C 40.820312 193.253906 39.226562 195.882812 37.476562 198.433594 C 37.160156 198.914062 36.839844 199.390625 36.601562 199.949219 C 36.285156 200.585938 36.601562 201.0625 37.316406 201.222656 C 37.714844 201.304688 38.195312 201.304688 38.671875 201.304688 C 40.980469 201.222656 42.890625 202.101562 44.480469 203.773438 C 46.472656 205.765625 47.902344 208.078125 49.019531 210.625 C 49.574219 211.902344 50.050781 213.257812 50.53125 214.53125 C 50.6875 214.851562 50.769531 215.328125 51.246094 215.25 C 51.644531 215.167969 51.484375 214.769531 51.484375 214.453125 C 51.167969 212.378906 51.246094 210.226562 51.324219 208.078125 C 51.484375 204.410156 52.441406 200.984375 54.746094 198.117188 C 55.703125 196.921875 56.816406 195.804688 57.851562 194.6875 C 59.601562 192.9375 59.523438 192.9375 57.292969 192.058594 C 52.203125 190.148438 47.664062 187.4375 45.355469 182.175781 C 45.199219 181.699219 45.039062 181.140625 44.320312 181.0625 C 43.765625 181.621094 43.765625 182.417969 43.765625 183.214844 Z M 43.765625 183.214844"/></g><path fill="#E49726" d="M 267.167969 191.898438 C 263.507812 193.175781 259.765625 194.371094 256.105469 195.644531 C 241.460938 200.746094 226.738281 205.84375 212.011719 210.785156 C 198.246094 215.40625 184.554688 220.109375 170.785156 224.730469 C 157.414062 229.195312 144.046875 233.417969 130.59375 237.5625 C 123.910156 239.554688 117.222656 241.625 110.617188 243.617188 C 110.21875 243.777344 109.824219 243.9375 109.34375 244.097656 C 105.125 245.050781 100.988281 246.488281 96.851562 247.761719 C 78.703125 253.261719 60.636719 258.679688 42.410156 263.859375 C 35.726562 265.773438 29.042969 267.765625 22.277344 269.675781 C 17.34375 271.03125 12.25 271.667969 7.15625 271.988281 C 5.5625 272.066406 3.972656 271.988281 2.457031 271.351562 C 0.628906 270.472656 0.0703125 269.039062 1.105469 267.285156 C 3.335938 263.460938 5.882812 259.953125 9.144531 257.003906 C 17.738281 249.195312 27.210938 242.742188 37.316406 237.164062 C 45.039062 232.859375 52.917969 228.957031 60.796875 224.8125 C 65.414062 222.421875 69.710938 219.550781 74.40625 217.320312 C 81.011719 214.210938 87.21875 210.308594 93.90625 207.359375 C 94.460938 207.121094 95.019531 206.800781 95.734375 206.800781 C 95.894531 207.519531 96.292969 208.234375 96.054688 209.03125 C 92.394531 210.386719 88.890625 212.21875 85.628906 214.292969 C 75.757812 220.429688 65.652344 226.007812 55.78125 232.0625 C 51.960938 234.375 48.140625 236.765625 44.5625 239.472656 C 39.386719 243.300781 34.214844 247.042969 29.679688 251.585938 C 29.121094 252.222656 28.246094 252.542969 28.5625 253.578125 C 28.800781 254.457031 29.679688 254.535156 30.394531 254.695312 C 32.703125 255.171875 35.011719 255.09375 37.316406 254.773438 C 40.898438 254.296875 44.402344 253.738281 47.902344 253.019531 C 58.328125 250.871094 68.675781 248.558594 78.703125 245.050781 C 88.09375 241.707031 97.488281 238.757812 107.117188 236.207031 C 118.101562 233.257812 128.921875 229.59375 139.828125 226.40625 C 144.203125 225.128906 148.582031 223.535156 153.039062 222.261719 C 160.839844 219.871094 168.796875 217.878906 176.597656 215.328125 C 182.167969 213.496094 187.898438 211.980469 193.390625 209.910156 C 196.574219 208.714844 199.757812 207.597656 203.019531 206.5625 C 211.535156 203.933594 220.050781 201.542969 228.488281 198.671875 C 235.09375 196.441406 241.621094 194.050781 248.304688 191.980469 C 255.546875 189.667969 262.710938 187.117188 269.792969 184.167969 C 275.683594 181.699219 281.730469 179.628906 287.621094 176.996094 C 291.601562 175.164062 295.660156 173.332031 299.796875 171.816406 C 309.667969 167.992188 319.21875 163.53125 328.847656 159.148438 C 333.382812 157.074219 337.839844 154.84375 341.820312 151.738281 C 342.296875 151.339844 342.933594 151.019531 342.855469 150.222656 C 342.773438 149.503906 342.136719 149.1875 341.582031 148.949219 C 341.183594 148.789062 340.707031 148.628906 340.308594 148.628906 C 335.054688 148.628906 329.800781 148.628906 324.550781 149.105469 C 321.445312 149.425781 318.34375 149.902344 315.238281 150.144531 C 311.179688 150.382812 307.121094 151.019531 303.0625 151.496094 C 297.488281 152.136719 291.917969 153.089844 286.425781 154.046875 C 279.34375 155.324219 272.179688 156.519531 265.175781 158.113281 C 263.902344 158.429688 262.710938 158.667969 261.4375 158.75 C 260.960938 158.191406 260.640625 157.632812 260.71875 156.835938 C 278.546875 153.332031 296.058594 148.46875 313.886719 145.042969 C 321.285156 143.609375 328.609375 141.773438 336.011719 140.421875 C 346.039062 138.507812 356.144531 136.675781 366.332031 135.640625 C 367.765625 135.480469 369.117188 135.480469 370.550781 135.640625 C 373.65625 135.878906 374.929688 138.03125 373.734375 140.898438 C 372.9375 142.8125 371.585938 144.324219 370.074219 145.839844 C 366.492188 149.347656 362.273438 152.054688 357.898438 154.527344 C 350.097656 159.066406 341.898438 162.8125 333.621094 166.480469 C 315.554688 174.605469 296.851562 181.300781 278.230469 187.996094 C 274.328125 189.191406 270.75 190.546875 267.167969 191.898438 Z M 219.8125 188.15625 C 212.570312 190.703125 205.246094 192.855469 197.765625 194.6875 C 189.089844 196.839844 180.574219 199.230469 172.296875 202.5 C 165.773438 205.046875 159.167969 207.121094 152.480469 209.113281 C 145.320312 211.183594 138.074219 213.175781 130.992188 215.648438 C 127.332031 216.921875 123.671875 218.277344 119.851562 219.3125 C 116.984375 220.1875 114.121094 221.066406 111.253906 221.863281 C 107.355469 222.898438 103.457031 224.175781 99.398438 224.890625 C 96.691406 225.925781 93.90625 226.566406 91.121094 227.28125 C 87.457031 228.316406 83.796875 229.59375 79.976562 229.992188 C 78.148438 230.230469 76.316406 230.308594 74.484375 229.910156 C 73.132812 229.59375 73.054688 229.195312 73.847656 228.078125 C 74.484375 227.203125 75.359375 226.484375 76.15625 225.847656 C 79.421875 223.136719 83.082031 221.066406 86.742188 218.914062 C 90.003906 217 93.269531 215.089844 96.371094 212.9375 C 96.53125 212.140625 96.609375 211.265625 96.054688 210.546875 C 92.632812 212.0625 89.605469 214.210938 86.34375 215.964844 C 79.816406 219.550781 73.53125 223.375 67.242188 227.441406 C 63.105469 230.152344 59.125 233.257812 55.464844 236.605469 C 53.632812 238.199219 51.882812 239.871094 50.132812 241.625 C 49.894531 241.863281 49.574219 242.183594 49.335938 242.421875 C 48.859375 242.902344 48.460938 243.457031 48.859375 244.175781 C 49.175781 244.8125 49.8125 244.734375 50.371094 244.8125 C 52.679688 244.894531 54.90625 244.335938 57.214844 243.855469 C 62.46875 242.902344 67.480469 241.148438 72.496094 239.554688 C 77.828125 237.960938 83.242188 236.683594 88.574219 235.171875 C 92.394531 234.136719 96.132812 232.699219 99.875 231.347656 C 106.242188 229.113281 112.847656 227.441406 119.375 225.527344 C 124.464844 224.015625 129.480469 222.339844 134.574219 220.90625 C 139.667969 219.472656 144.601562 217.320312 149.777344 216.125 C 155.027344 214.929688 160.042969 212.9375 165.214844 211.421875 C 170.707031 209.828125 176.117188 208.234375 181.53125 206.484375 C 186.304688 204.96875 191.082031 203.054688 195.855469 201.621094 C 203.578125 199.3125 211.296875 196.921875 218.859375 194.289062 C 224.746094 192.21875 230.636719 189.988281 236.605469 188.15625 C 245.996094 185.285156 255.148438 181.859375 264.460938 178.910156 C 268.839844 177.554688 272.976562 175.484375 277.195312 173.652344 C 283.242188 170.941406 289.210938 168.3125 295.339844 165.839844 C 302.265625 162.972656 309.1875 160.105469 315.875 156.675781 C 316.589844 156.277344 317.785156 156.121094 317.546875 154.925781 C 317.308594 153.570312 316.113281 153.886719 315.160156 153.886719 C 311.976562 153.886719 308.710938 153.808594 305.527344 153.96875 C 302.664062 154.128906 299.796875 154.367188 296.933594 154.84375 C 294.386719 155.242188 291.757812 155.402344 289.132812 155.800781 C 286.1875 156.199219 283.242188 156.757812 280.21875 157.15625 C 274.089844 158.03125 268.121094 159.707031 262.074219 160.980469 C 262.074219 161.777344 262.390625 162.496094 262.789062 163.132812 C 266.847656 162.253906 270.90625 161.300781 274.964844 160.660156 C 277.355469 160.261719 279.820312 160.34375 282.210938 159.945312 C 283.085938 159.785156 283.878906 160.023438 284.277344 160.980469 C 284.597656 161.777344 284.277344 162.496094 283.242188 163.210938 C 281.96875 164.007812 280.695312 164.644531 279.34375 165.363281 C 274.726562 167.753906 270.03125 169.90625 265.175781 171.660156 C 260.480469 174.050781 255.707031 176.121094 250.691406 177.792969 C 241.460938 180.902344 232.070312 183.691406 222.917969 187.199219 C 222.359375 187.4375 221.882812 187.675781 221.246094 187.597656 C 220.925781 187.757812 220.371094 187.996094 219.8125 188.15625 Z M 219.8125 188.15625"/><g clip-path="url(#b)"><path fill="#D178D5" d="M 243.289062 133.804688 C 242.574219 133.804688 241.9375 134.125 241.300781 134.523438 C 237.164062 136.753906 232.707031 137.710938 228.167969 138.507812 C 225.382812 138.984375 222.675781 139.464844 219.890625 140.023438 C 215.832031 140.898438 212.570312 142.890625 210.261719 146.476562 C 208.429688 149.265625 206.042969 151.65625 203.417969 153.648438 C 201.429688 155.164062 199.121094 156.199219 196.8125 157.074219 C 193.546875 158.269531 190.207031 158.988281 186.941406 160.023438 C 182.007812 161.539062 177.550781 164.007812 173.414062 167.195312 C 171.34375 168.789062 169.035156 170.144531 166.570312 171.019531 C 165.773438 171.339844 164.816406 171.660156 164.339844 170.78125 C 163.941406 169.984375 164.660156 169.347656 165.214844 168.871094 C 169.195312 166.160156 172.140625 162.414062 175.164062 158.828125 C 177.949219 155.5625 181.453125 153.25 185.191406 151.257812 C 188.453125 149.503906 191.796875 147.910156 195.140625 146.238281 C 198.800781 144.40625 201.90625 141.855469 204.054688 138.269531 C 204.292969 137.871094 204.691406 137.472656 204.609375 136.753906 C 203.097656 136.195312 201.667969 136.914062 200.15625 137.152344 C 194.742188 138.109375 190.046875 140.578125 185.429688 143.449219 C 182.167969 145.441406 178.746094 146.714844 174.765625 146.636719 C 170.386719 146.554688 166.328125 147.832031 162.75 150.382812 C 160.996094 151.65625 159.167969 152.773438 157.414062 154.128906 C 153.4375 156.996094 149.140625 159.226562 144.441406 160.582031 C 143.726562 160.742188 143.011719 161.140625 142.613281 160.261719 C 142.292969 159.464844 142.691406 158.828125 143.328125 158.429688 C 147.148438 155.960938 150.492188 152.851562 154.230469 150.222656 C 157.496094 147.910156 160.28125 145.042969 162.667969 141.933594 C 165.933594 137.710938 170.308594 135.480469 175.324219 134.285156 C 178.824219 133.488281 182.328125 132.851562 185.75 131.734375 C 190.285156 130.21875 194.183594 127.828125 197.527344 124.402344 C 200.472656 121.453125 203.417969 118.507812 206.363281 115.558594 C 206.839844 115.078125 207.476562 114.679688 207.554688 113.882812 C 214.242188 115.796875 220.609375 118.585938 226.738281 121.851562 C 232.308594 124.800781 237.320312 128.46875 242.015625 132.609375 C 242.496094 132.929688 242.972656 133.328125 243.289062 133.804688 Z M 96.054688 210.546875 C 96.53125 211.34375 96.453125 212.140625 96.371094 212.9375 C 97.007812 217 97.882812 221.066406 99.476562 224.890625 C 103.457031 224.09375 107.355469 222.898438 111.335938 221.863281 C 114.199219 221.066406 117.066406 220.1875 119.929688 219.3125 C 121.28125 217.71875 122.796875 216.285156 124.148438 214.691406 C 127.011719 211.183594 130.914062 208.875 134.8125 206.640625 C 136.5625 205.605469 138.316406 204.410156 140.226562 203.851562 C 141.65625 203.375 142.929688 202.738281 144.203125 202.019531 C 148.183594 199.789062 152.164062 197.476562 156.460938 195.726562 C 160.757812 194.050781 165.054688 192.457031 169.035156 190.148438 C 172.457031 188.15625 175.402344 185.683594 177.871094 182.574219 C 178.1875 182.097656 178.664062 181.777344 179.144531 181.378906 C 180.894531 180.027344 182.964844 179.386719 185.113281 178.910156 C 186.464844 178.589844 186.941406 178.113281 186.785156 177.476562 C 186.625 176.757812 185.910156 176.597656 184.636719 176.917969 C 181.210938 177.792969 177.949219 178.988281 174.765625 180.503906 C 172.21875 181.777344 169.910156 183.292969 167.523438 184.808594 C 165.773438 185.921875 163.941406 187.039062 161.871094 187.039062 C 159.566406 187.117188 157.257812 187.4375 155.027344 187.515625 C 153.117188 187.597656 151.207031 187.996094 149.457031 188.632812 C 144.839844 190.226562 140.464844 192.296875 136.5625 195.246094 C 135.050781 196.441406 133.222656 196.839844 131.390625 197.160156 C 128.207031 197.71875 124.945312 198.035156 121.761719 198.671875 C 120.964844 198.832031 120.089844 199.390625 118.976562 198.914062 C 120.726562 197.558594 122.476562 196.523438 124.308594 195.644531 C 128.207031 193.734375 132.1875 191.898438 136.085938 189.90625 C 138.074219 188.953125 139.828125 187.675781 141.339844 186.082031 C 143.089844 184.25 144.441406 182.175781 145.714844 180.027344 C 147.230469 177.636719 148.898438 175.402344 151.207031 173.730469 C 152.480469 172.855469 153.675781 171.976562 155.1875 171.417969 C 156.140625 171.101562 156.460938 170.304688 156.140625 169.667969 C 155.664062 168.789062 154.949219 169.027344 154.3125 169.425781 C 152.878906 170.304688 151.367188 171.019531 149.855469 171.660156 C 148.820312 172.136719 147.707031 172.535156 146.671875 173.09375 C 143.167969 175.003906 139.984375 177.316406 136.800781 179.785156 C 132.664062 183.054688 128.128906 185.683594 122.953125 187.117188 C 114.4375 189.507812 106.160156 192.539062 98.203125 196.441406 C 97.167969 196.921875 96.371094 197.078125 95.335938 196.839844 C 95.179688 200.1875 95.179688 203.535156 95.65625 206.882812 C 95.816406 207.597656 96.214844 208.316406 95.972656 209.113281 C 95.972656 209.429688 95.972656 209.988281 96.054688 210.546875 Z M 259.128906 154.765625 C 258.253906 153.171875 257.617188 151.496094 256.421875 150.0625 C 251.328125 151.417969 246.394531 153.089844 241.539062 155.082031 C 235.96875 157.394531 231.195312 160.660156 227.691406 165.601562 C 224.347656 170.222656 220.289062 173.96875 215.277344 176.441406 C 211.457031 178.351562 207.554688 180.183594 203.578125 181.699219 C 202.621094 182.019531 201.667969 182.417969 200.710938 182.816406 C 200.15625 183.054688 199.757812 183.53125 199.914062 184.167969 C 200.074219 184.808594 200.550781 184.886719 201.03125 185.046875 C 201.269531 185.125 201.585938 185.125 201.824219 185.046875 C 203.335938 184.648438 204.851562 184.808594 206.363281 184.488281 C 211.21875 183.613281 215.59375 181.378906 219.8125 179.070312 C 224.269531 176.597656 228.886719 174.6875 233.820312 173.570312 C 234.855469 173.332031 235.96875 172.773438 237.320312 173.332031 C 236.367188 173.808594 235.652344 174.207031 234.855469 174.605469 C 231.671875 176.441406 228.566406 178.433594 226.179688 181.222656 C 224.507812 183.214844 222.917969 185.285156 221.324219 187.359375 C 221.960938 187.515625 222.4375 187.199219 222.996094 186.957031 C 232.148438 183.453125 241.539062 180.664062 250.773438 177.554688 C 255.707031 175.882812 260.5625 173.808594 265.257812 171.417969 C 264.460938 168.628906 263.664062 165.839844 262.871094 162.972656 C 262.472656 162.335938 262.152344 161.617188 262.152344 160.820312 C 261.597656 160.105469 261.199219 159.308594 261.039062 158.429688 C 260.5625 157.871094 260.242188 157.316406 260.324219 156.519531 C 259.6875 156.121094 259.445312 155.402344 259.128906 154.765625 Z M 212.730469 274.058594 C 220.371094 270.710938 227.53125 266.648438 233.742188 261.070312 C 241.859375 253.738281 249.179688 245.691406 254.511719 236.046875 C 256.261719 232.941406 258.09375 229.832031 259.207031 226.40625 C 254.113281 227.203125 249.179688 228.636719 244.5625 231.027344 C 243.53125 231.585938 242.496094 232.382812 241.300781 232.460938 L 241.378906 232.460938 C 241.300781 232.699219 241.0625 232.859375 240.824219 232.859375 C 239.550781 235.96875 238.832031 239.15625 239.3125 242.582031 C 239.3125 242.742188 239.390625 242.980469 239.390625 243.140625 C 239.46875 243.617188 239.390625 244.175781 238.914062 244.253906 C 238.4375 244.335938 238.355469 243.777344 238.277344 243.457031 C 237.878906 242.023438 237.480469 240.589844 236.765625 239.316406 C 236.367188 238.519531 235.96875 237.722656 235.253906 237.082031 C 234.855469 237.082031 234.535156 237.324219 234.21875 237.5625 C 232.46875 239.394531 230.398438 240.75 228.726562 242.660156 C 224.507812 247.363281 219.175781 250.3125 213.445312 252.542969 C 209.945312 253.898438 206.441406 255.332031 203.019531 256.925781 C 199.4375 258.597656 196.015625 260.671875 192.671875 262.742188 C 191.636719 263.382812 190.445312 264.019531 189.570312 264.976562 C 189.332031 265.214844 189.171875 265.53125 189.332031 265.851562 C 189.488281 266.25 189.808594 266.410156 190.285156 266.410156 C 191 266.410156 191.480469 266.011719 192.035156 265.691406 C 198.484375 262.425781 205.40625 260.671875 212.492188 259.875 C 217.105469 259.316406 221.644531 258.359375 225.859375 256.128906 C 228.40625 254.773438 231.035156 253.5 233.582031 252.222656 C 233.898438 252.066406 234.296875 251.585938 234.773438 252.066406 C 234.855469 252.382812 234.617188 252.542969 234.535156 252.78125 C 231.832031 256.527344 228.566406 259.792969 224.90625 262.585938 C 221.324219 265.292969 217.34375 267.367188 213.367188 269.359375 C 210.421875 270.871094 207.636719 272.464844 205.007812 274.457031 C 203.976562 275.253906 203.339844 276.132812 203.417969 277.484375 C 206.601562 276.6875 209.625 275.414062 212.730469 274.058594 Z M 116.429688 253.179688 C 121.125 258.28125 126.21875 262.824219 132.027344 266.648438 C 134.574219 268.320312 137.042969 270.15625 139.984375 271.109375 C 142.691406 270.3125 144.523438 268.402344 146.035156 266.328125 C 149.140625 262.105469 153.515625 261.308594 158.132812 261.546875 C 160.359375 261.628906 162.429688 261.308594 164.578125 261.148438 C 166.410156 260.992188 167.523438 259.792969 168.558594 258.441406 C 168.875 258.042969 169.117188 257.5625 169.433594 257.164062 C 171.421875 253.816406 174.449219 251.746094 178.269531 250.949219 C 178.90625 250.789062 179.542969 250.710938 180.097656 250.472656 C 180.496094 250.3125 180.894531 249.992188 180.816406 249.433594 C 180.734375 248.878906 180.257812 248.71875 179.78125 248.71875 C 178.90625 248.71875 177.949219 248.71875 177.074219 248.796875 C 173.8125 249.117188 170.46875 249.515625 167.207031 249.832031 C 164.660156 250.074219 162.113281 250.390625 159.644531 250.871094 C 156.382812 251.425781 153.199219 252.382812 149.777344 252.222656 C 149.378906 252.222656 148.898438 252.304688 148.421875 252.464844 C 147.546875 252.703125 146.59375 252.703125 145.714844 252.542969 C 141.738281 251.984375 137.835938 251.027344 133.859375 250.550781 C 129.71875 250.074219 125.582031 249.992188 121.441406 250.871094 C 119.453125 251.269531 117.78125 252.382812 115.792969 252.621094 C 116.109375 252.78125 116.269531 253.019531 116.429688 253.179688 Z M 170.070312 110.695312 C 160.839844 111.972656 152.480469 115.398438 144.761719 120.578125 C 141.417969 122.808594 138.15625 125.28125 134.894531 127.589844 C 128.445312 132.054688 122.398438 136.914062 117.222656 142.890625 C 113.324219 147.433594 109.582031 152.214844 106.480469 157.394531 C 106.082031 158.113281 105.523438 158.75 105.605469 159.707031 C 106.082031 159.785156 106.480469 159.464844 106.796875 159.226562 C 109.824219 156.359375 113.402344 154.207031 117.144531 152.292969 C 122.398438 149.746094 127.570312 147.035156 132.742188 144.484375 C 136.246094 142.730469 139.269531 140.421875 141.417969 137.152344 C 143.886719 133.328125 147.46875 130.9375 151.527344 129.183594 C 153.835938 128.226562 156.222656 127.429688 158.53125 126.632812 C 162.113281 125.359375 165.933594 124.5625 169.59375 123.605469 C 170.308594 123.445312 171.105469 123.207031 171.742188 122.890625 C 172.777344 122.410156 172.777344 121.773438 172.058594 120.898438 C 171.34375 120.101562 170.46875 119.78125 169.511719 119.78125 C 165.453125 119.621094 161.394531 119.703125 157.414062 120.976562 C 152.71875 122.492188 148.261719 124.5625 143.886719 126.792969 C 141.738281 127.910156 139.828125 129.183594 138.15625 130.9375 C 135.449219 133.726562 132.347656 135.957031 128.765625 137.472656 C 128.367188 137.632812 128.046875 138.03125 127.492188 137.550781 C 129.320312 135.480469 131.390625 133.648438 133.539062 131.972656 C 138.15625 128.308594 142.851562 124.640625 148.105469 121.695312 C 153.4375 118.824219 158.929688 116.515625 164.660156 114.679688 C 167.207031 113.882812 169.753906 113.085938 172.21875 111.972656 C 172.933594 111.652344 173.890625 111.414062 173.890625 110.378906 C 172.457031 110.296875 171.265625 110.535156 170.070312 110.695312 Z M 288.972656 296.851562 C 288.972656 295.496094 289.210938 294.140625 289.453125 292.867188 C 290.644531 286.410156 293.667969 281.070312 299.082031 277.328125 C 299.640625 276.929688 300.195312 276.6875 300.753906 276.371094 C 301.230469 276.050781 301.867188 275.890625 301.707031 275.175781 C 301.550781 274.539062 300.992188 274.617188 300.433594 274.539062 C 300.035156 274.457031 299.640625 274.457031 299.320312 274.296875 C 294.703125 272.785156 291.601562 269.675781 289.847656 265.214844 C 289.054688 263.0625 288.335938 260.832031 287.859375 258.597656 C 287.78125 258.199219 287.621094 257.722656 287.382812 257.324219 C 287.144531 256.925781 286.824219 256.367188 286.1875 256.527344 C 285.710938 256.6875 285.550781 257.164062 285.632812 257.644531 C 285.710938 258.679688 285.394531 259.714844 285.234375 260.671875 C 284.121094 267.921875 280.617188 273.183594 273.535156 275.734375 C 272.660156 276.050781 271.863281 276.449219 271.066406 276.847656 C 270.667969 277.007812 270.511719 277.40625 270.589844 277.804688 C 270.667969 278.28125 270.988281 278.441406 271.386719 278.523438 C 271.78125 278.601562 272.179688 278.601562 272.5 278.601562 C 275.207031 278.761719 277.671875 279.71875 279.664062 281.46875 C 282.6875 284.101562 284.835938 287.289062 285.871094 291.191406 C 286.347656 292.945312 286.667969 294.777344 287.0625 296.609375 C 287.222656 297.167969 287.300781 297.726562 288.019531 297.886719 C 288.734375 297.886719 288.972656 297.40625 288.972656 296.851562 Z M 157.894531 278.28125 C 166.648438 280.433594 175.5625 281.230469 184.554688 280.914062 C 186.546875 280.832031 188.695312 280.914062 190.605469 280.273438 C 190.363281 280.117188 190.207031 279.875 189.96875 279.796875 C 182.566406 276.847656 175.085938 274.457031 166.964844 274.855469 C 163.066406 275.015625 159.40625 276.050781 155.902344 277.644531 C 156.539062 278.042969 157.257812 278.125 157.894531 278.28125 Z M 234.855469 221.542969 C 235.253906 220.507812 236.207031 220.429688 237.003906 220.1875 C 242.335938 218.4375 247.746094 216.84375 253.238281 215.886719 C 254.433594 215.648438 255.625 215.488281 256.742188 215.089844 C 257.933594 214.691406 258.253906 213.414062 257.378906 212.699219 C 257.058594 212.460938 256.742188 212.300781 256.34375 212.140625 C 251.089844 209.511719 245.597656 209.671875 240.105469 211.023438 C 236.765625 211.902344 233.742188 213.734375 230.636719 215.25 C 229.203125 215.964844 227.769531 216.363281 226.257812 216.285156 C 224.03125 216.285156 221.960938 215.566406 219.972656 214.769531 C 219.414062 214.609375 218.9375 214.292969 218.300781 214.292969 C 215.039062 214.210938 211.773438 214.210938 208.511719 214.769531 C 203.417969 215.648438 198.722656 217.640625 194.425781 220.585938 C 189.25 224.015625 184.394531 227.917969 179.0625 231.027344 C 175.402344 233.097656 171.742188 234.933594 167.601562 235.648438 C 164.261719 236.207031 160.917969 236.683594 157.574219 237.164062 C 156.382812 237.324219 155.1875 237.640625 153.992188 237.878906 C 153.277344 238.039062 152.5625 238.277344 152.640625 239.15625 C 152.71875 239.871094 153.515625 239.792969 153.992188 239.953125 C 157.097656 240.828125 160.203125 241.707031 163.542969 241.945312 C 166.488281 242.183594 169.355469 242.105469 172.296875 241.546875 C 175.960938 240.75 179.0625 238.917969 182.246094 237.164062 C 186.066406 235.089844 190.046875 233.257812 194.183594 231.984375 C 197.527344 230.949219 201.109375 230.789062 204.53125 230.230469 C 204.851562 230.152344 205.246094 229.992188 205.566406 230.390625 C 205.566406 230.628906 205.488281 230.789062 205.246094 230.867188 C 202.941406 232.300781 201.109375 234.214844 199.4375 236.367188 C 197.6875 238.597656 195.457031 240.269531 192.753906 241.308594 C 191.398438 241.785156 190.125 242.34375 188.851562 242.980469 C 188.214844 243.300781 187.660156 243.855469 187.898438 244.652344 C 188.136719 245.371094 188.773438 245.449219 189.410156 245.53125 C 190.523438 245.691406 191.558594 245.371094 192.59375 245.132812 C 196.730469 244.335938 200.871094 243.457031 204.691406 241.546875 C 209.386719 239.15625 213.605469 236.046875 217.34375 232.382812 C 218.859375 230.867188 220.449219 229.355469 222.199219 228 C 225.621094 225.449219 229.441406 223.457031 233.34375 221.625 C 233.742188 221.464844 234.058594 221.304688 234.378906 221.703125 C 234.617188 221.703125 234.695312 221.625 234.855469 221.542969 Z M 234.855469 221.542969"/></g><path fill="#E5E17C" d="M 120.488281 182.65625 C 119.53125 182.175781 119.613281 181.460938 119.453125 180.902344 C 118.738281 178.832031 118.179688 176.757812 116.984375 174.925781 C 116.03125 173.492188 114.835938 172.613281 113.007812 172.773438 C 112.765625 172.773438 112.527344 172.773438 112.210938 172.773438 C 111.734375 172.695312 111.097656 173.011719 110.777344 172.457031 C 110.460938 171.898438 111.015625 171.578125 111.335938 171.179688 C 111.890625 170.542969 112.371094 169.90625 112.925781 169.269531 C 114.597656 167.515625 115.472656 165.441406 115.234375 162.972656 C 115.234375 162.574219 115.234375 162.175781 115.234375 161.855469 C 115.234375 161.457031 115.234375 161.058594 115.710938 160.980469 C 116.109375 160.902344 116.269531 161.21875 116.429688 161.539062 C 116.585938 161.855469 116.746094 162.097656 116.90625 162.414062 C 118.339844 165.125 120.40625 166.957031 123.589844 167.195312 C 123.910156 167.195312 124.308594 167.195312 124.386719 167.59375 C 124.464844 167.992188 124.226562 168.152344 123.988281 168.390625 C 120.328125 171.019531 120.007812 174.847656 120.488281 178.910156 C 120.566406 179.945312 120.726562 181.222656 120.488281 182.65625 Z M 234.058594 226.007812 C 233.898438 228.316406 233.105469 230.308594 231.035156 231.585938 C 230.398438 231.984375 229.761719 232.460938 229.203125 232.941406 C 228.648438 233.417969 228.726562 233.816406 229.441406 234.054688 C 229.761719 234.136719 230.078125 234.214844 230.398438 234.214844 C 232.625 234.136719 234.136719 235.25 235.253906 237.003906 C 235.96875 237.640625 236.289062 238.4375 236.765625 239.234375 C 237.480469 240.511719 237.800781 241.945312 238.277344 243.378906 C 238.355469 243.699219 238.4375 244.253906 238.914062 244.175781 C 239.46875 244.097656 239.46875 243.539062 239.390625 243.058594 C 239.390625 242.902344 239.3125 242.660156 239.3125 242.503906 C 238.832031 239.074219 239.550781 235.886719 240.824219 232.78125 C 240.984375 232.542969 241.140625 232.382812 241.378906 232.382812 C 241.378906 232.382812 241.300781 232.382812 241.300781 232.382812 C 241.539062 231.105469 243.210938 231.265625 243.53125 230.070312 C 243.210938 229.511719 242.574219 229.59375 242.097656 229.511719 C 240.824219 229.355469 239.789062 228.796875 238.832031 228 C 237.480469 226.964844 236.605469 225.609375 235.96875 224.015625 C 235.652344 223.136719 235.410156 222.179688 234.773438 221.464844 C 234.695312 221.542969 234.535156 221.542969 234.457031 221.542969 C 234.058594 223.058594 234.21875 224.574219 234.058594 226.007812 Z M 95.894531 208.953125 C 92.234375 210.308594 88.730469 212.140625 85.46875 214.210938 C 75.601562 220.347656 65.492188 225.925781 55.625 231.984375 C 51.804688 234.292969 47.984375 236.683594 44.402344 239.394531 C 39.226562 243.21875 34.054688 246.964844 29.519531 251.507812 C 28.960938 252.144531 28.085938 252.464844 28.40625 253.5 C 28.644531 254.375 29.519531 254.457031 30.234375 254.613281 C 32.542969 255.09375 34.851562 255.011719 37.160156 254.695312 C 40.742188 254.214844 44.242188 253.660156 47.746094 252.941406 C 58.171875 250.789062 68.515625 248.480469 78.542969 244.972656 C 87.9375 241.625 97.328125 238.675781 106.957031 236.128906 C 117.941406 233.179688 128.765625 229.511719 139.667969 226.324219 C 144.046875 225.050781 148.421875 223.457031 152.878906 222.179688 C 160.679688 219.789062 168.636719 217.796875 176.4375 215.25 C 182.007812 213.414062 187.738281 211.902344 193.230469 209.828125 C 196.414062 208.632812 199.597656 207.519531 202.859375 206.484375 C 211.375 203.851562 219.890625 201.460938 228.328125 198.59375 C 234.933594 196.363281 241.460938 193.972656 248.144531 191.898438 C 255.386719 189.589844 262.550781 187.039062 269.632812 184.089844 C 275.523438 181.621094 281.574219 179.546875 287.460938 176.917969 C 291.441406 175.085938 295.5 173.253906 299.640625 171.738281 C 309.507812 167.914062 319.058594 163.449219 328.6875 159.066406 C 333.226562 156.996094 337.683594 154.765625 341.660156 151.65625 C 342.136719 151.257812 342.773438 150.941406 342.695312 150.144531 C 342.617188 149.425781 341.980469 149.105469 341.421875 148.867188 C 341.023438 148.707031 340.546875 148.546875 340.148438 148.546875 C 334.894531 148.546875 329.644531 148.546875 324.390625 149.027344 C 321.285156 149.34375 318.183594 149.824219 315.078125 150.0625 C 311.019531 150.300781 306.960938 150.941406 302.902344 151.417969 C 297.332031 152.054688 291.757812 153.011719 286.269531 153.96875 C 279.183594 155.242188 272.023438 156.4375 265.019531 158.03125 C 263.746094 158.351562 262.550781 158.589844 261.277344 158.667969 C 261.515625 159.546875 261.835938 160.34375 262.390625 161.058594 C 268.441406 159.785156 274.410156 158.113281 280.539062 157.234375 C 283.484375 156.835938 286.425781 156.277344 289.453125 155.878906 C 292.078125 155.5625 294.625 155.402344 297.25 154.925781 C 300.117188 154.445312 302.980469 154.207031 305.847656 154.046875 C 309.03125 153.886719 312.214844 153.96875 315.476562 153.96875 C 316.351562 153.96875 317.546875 153.570312 317.863281 155.003906 C 318.101562 156.199219 316.910156 156.4375 316.191406 156.757812 C 309.507812 160.183594 302.582031 163.050781 295.660156 165.921875 C 289.53125 168.390625 283.5625 171.101562 277.511719 173.730469 C 273.296875 175.644531 269.15625 177.636719 264.78125 178.988281 C 255.46875 181.9375 246.316406 185.363281 236.921875 188.234375 C 230.953125 190.066406 225.066406 192.296875 219.175781 194.371094 C 211.613281 197.078125 203.894531 199.390625 196.175781 201.703125 C 191.320312 203.136719 186.625 205.046875 181.847656 206.5625 C 176.4375 208.316406 170.945312 209.910156 165.535156 211.503906 C 160.359375 213.015625 155.347656 214.929688 150.09375 216.203125 C 144.921875 217.398438 139.984375 219.550781 134.894531 220.984375 C 129.800781 222.421875 124.707031 224.015625 119.691406 225.609375 C 113.246094 227.601562 106.640625 229.195312 100.191406 231.425781 C 96.453125 232.78125 92.710938 234.136719 88.890625 235.25 C 83.558594 236.765625 78.148438 238.039062 72.8125 239.632812 C 67.722656 241.148438 62.707031 242.980469 57.535156 243.9375 C 55.304688 244.335938 53.078125 244.972656 50.6875 244.894531 C 50.132812 244.894531 49.496094 244.894531 49.175781 244.253906 C 48.859375 243.539062 49.257812 243.058594 49.65625 242.503906 C 49.894531 242.183594 50.210938 241.945312 50.449219 241.707031 C 52.199219 239.953125 53.953125 238.359375 55.78125 236.683594 C 59.523438 233.339844 63.421875 230.230469 67.5625 227.519531 C 73.769531 223.457031 80.136719 219.632812 86.664062 216.046875 C 89.925781 214.292969 92.949219 212.140625 96.371094 210.625 C 95.972656 209.988281 95.972656 209.429688 95.894531 208.953125 Z M 95.894531 208.953125"/></svg>